# xmcd CD database file
#
# Track frame offsets:
#	150
#	17411
#	32797
#	48572
#	64031
#	81201
#	95795
#	113656
#	128022
#	143440
#	156128
#	171291
#	193208
#	209670
#	223481
#	239046
#
# Disc length: 3428 seconds
#
# Revision: 0
# Processed by: cddbd v1.5.2PL0 Copyright (c) Steve Scherf et al.
# Submitted via: CDex 1.51
#
DISCID=ee0d6210
DTITLE=Various Artist - Country Heat Summer BBQ
DYEAR=2009
DGENRE=Country
TTITLE0=Alan Jackson (w/Jimmy Buffett - It's Five O'Clock Somewhere
TTITLE1=Faith Hill - Sunshine and Summertime
TTITLE2=Brad Paisley - Mud on the Tires
TTITLE3=Kenny Chesney - Summertime
TTITLE4=Craig Morgan - Redneck Yacht Club
TTITLE5=Brooks and Dunn - Play Something Country
TTITLE6=Shooter Jennings - Walk of Life
TTITLE7=Jason Aldean - Johnny Cash
TTITLE8=Blake Shelton - Some Beach
TTITLE9=Gretchen Wilson - California Girls
TTITLE10=Big and Rich - Save a Horse, Ride a Cowboy
TTITLE11=Montgomery Gentry - Hell Yeah
TTITLE12=Phil Vasser - Six-Pack Summer
TTITLE13=Tracy Byrd - Ten Rounds with Jose Cuervo
TTITLE14=Aaron Lines - Cheaper to Keep Her
TTITLE15=Carrie Underwood - Last Name
EXTD=YEAR: 2009
EXTT0=
EXTT1=
EXTT2=
EXTT3=
EXTT4=
EXTT5=
EXTT6=
EXTT7=
EXTT8=
EXTT9=
EXTT10=
EXTT11=
EXTT12=
EXTT13=
EXTT14=
EXTT15=
PLAYORDER=
